<svg id="_Layer_" data-name="&amp;lt;Layer&amp;gt;" xmlns="http://www.w3.org/2000/svg" version="1.1" viewBox="0 0 465.99 360.45">
  
  
  <defs>
    <style>
      .cls-1 {
        fill: #d70321;
      }

      .cls-1, .cls-2 {
        stroke-width: 0px;
      }

      .cls-2 {
        fill: #002657;
      }
    </style>
  </defs><path class="cls-2" d="M84.56,199.8h61.57s-6.62,2.33-8.96,4.67c-3.92,3.92-4.66,7.09-4.66,7.09h-45.53l-2.43-11.76Z"/><path class="cls-2" d="M110.87,141.92s17.73,2.8,26.5,10.27c8.77,7.47,10.45,14.75,10.82,18.49.37,3.73.52,9.64-.56,14.19-1.68,7.09-3.17,8.59-3.17,8.59,0,0-4.67-2.24-15.3-2.05-7.84.14-18.66,2.24-18.66,2.24,0,0,2.58-16.07,2.99-23.52.56-10.27-2.61-28.19-2.61-28.19"/>
  <path class="cls-1" d="M110.69,137.81v-5.6s3.73-1.31,6.53-1.12c2.8.19,4.48.88,5.79,1.81,1.31.93,1.85,2.19,4.62,2.92,2.73.72,4.51-.26,4.51-.26,0,0-2,2.32-4.85,2.43-2.89.1-6.71-2.7-9.7-2.8-3.18-.1-6.9,2.62-6.9,2.62"/>
  <path class="cls-2" d="M211.92,128.17s17.73,2.88,26.5,10.58c8.77,7.69,10.45,15.19,10.82,19.04.37,3.85.51,9.93-.56,14.61-1.68,7.31-3.17,8.85-3.17,8.85,0,0-4.66-2.31-15.3-2.12-7.84.14-18.66,2.31-18.66,2.31,0,0,2.58-16.55,2.99-24.23.56-10.58-2.61-29.04-2.61-29.04"/>
  <path class="cls-2" d="M172.03,190.44h87.35s-9.4,4.17-12.71,8.35c-5.55,7.01-6.61,12.69-6.61,12.69h-64.58l-3.44-21.05Z"/>
  <path class="cls-2" d="M281.3,180.13h183.73s-19.77,6.32-26.73,12.65c-11.69,10.62-13.91,19.23-13.91,19.23h-135.85l-7.24-31.88Z"/>
  <path class="cls-2" d="M213.36,88.72s12.88,2.05,19.25,7.5c6.37,5.46,7.59,10.78,7.86,13.51.27,2.73.37,7.05-.41,10.37-1.22,5.19-2.31,6.28-2.31,6.28,0,0-3.39-1.64-11.12-1.5-5.7.1-13.55,1.64-13.55,1.64,0,0,1.87-11.74,2.17-17.19.41-7.5-1.9-20.6-1.9-20.6"/>
  <path class="cls-2" d="M180.91,141.84s13.6,2.16,20.34,7.92c6.73,5.75,8.02,11.36,8.31,14.24.29,2.88.39,7.43-.43,10.94-1.29,5.47-2.44,6.62-2.44,6.62,0,0-3.58-1.73-11.74-1.58-6.02.11-14.32,1.73-14.32,1.73,0,0,1.98-12.38,2.29-18.13.43-7.91-2.01-21.73-2.01-21.73"/>
  <path class="cls-2" d="M180.83,107.8s10.21,1.63,15.26,5.97c5.05,4.34,6.02,8.57,6.23,10.74.22,2.17.3,5.6-.32,8.24-.97,4.12-1.83,4.99-1.83,4.99,0,0-2.69-1.3-8.81-1.2-4.52.08-10.75,1.3-10.75,1.3,0,0,1.48-9.34,1.72-13.67.32-5.97-1.5-16.38-1.5-16.38"/>
  <path class="cls-2" d="M294.96,107.28s20.15,3.22,30.12,11.81c9.97,8.59,11.88,16.96,12.3,21.25.42,4.29.58,11.09-.64,16.31-1.91,8.16-3.61,9.87-3.61,9.87,0,0-5.3-2.58-17.39-2.36-8.91.16-21.21,2.58-21.21,2.58,0,0,2.93-18.47,3.39-27.04.64-11.81-2.97-32.41-2.97-32.41"/>
  <path class="cls-2" d="M344.03,92.84s25.48,4.06,38.09,14.88c12.61,10.82,15.02,21.37,15.56,26.78.53,5.41.74,13.97-.81,20.55-2.42,10.28-4.56,12.44-4.56,12.44,0,0-6.7-3.24-21.99-2.97-11.27.2-26.82,3.25-26.82,3.25,0,0,3.71-23.28,4.29-34.08.8-14.88-3.75-40.84-3.75-40.84"/>
  <path class="cls-2" d="M344.94,27.34s19.42,2.97,29.03,10.88c9.61,7.92,11.45,15.63,11.86,19.59.41,3.96.56,10.22-.61,15.04-1.84,7.52-3.48,9.1-3.48,9.1,0,0-5.11-2.37-16.76-2.18-8.59.15-20.44,2.37-20.44,2.37,0,0,2.83-17.03,3.27-24.93.61-10.88-2.86-29.88-2.86-29.88"/>
  <path class="cls-2" d="M404.64,55.19s15.3,2.38,22.87,8.73c7.57,6.35,9.02,12.54,9.34,15.72.32,3.18.44,8.2-.48,12.07-1.45,6.03-2.74,7.3-2.74,7.3,0,0-4.03-1.9-13.21-1.75-6.77.12-16.11,1.91-16.11,1.91,0,0,2.23-13.66,2.58-20.01.49-8.73-2.26-23.98-2.26-23.98"/>
  <path class="cls-2" d="M404.22,106.25s19.91,3.22,29.76,11.81c9.85,8.59,11.74,16.96,12.15,21.25.42,4.29.58,11.09-.63,16.31-1.89,8.16-3.56,9.87-3.56,9.87,0,0-5.24-2.57-17.18-2.36-8.81.16-20.95,2.57-20.95,2.57,0,0,2.9-18.47,3.35-27.04.63-11.81-2.94-32.41-2.94-32.41"/>
  <path class="cls-1" d="M213.74,82.49v-9.1s6.06-2.12,10.61-1.82c4.55.3,7.28,1.43,9.41,2.95,2.13,1.51,3.02,3.56,7.52,4.75,4.44,1.17,7.33-.42,7.33-.42,0,0-3.25,3.78-7.88,3.95-4.69.17-10.91-4.39-15.77-4.55-5.16-.17-11.22,4.25-11.22,4.25"/>
  <path class="cls-1" d="M344.14,16.94V2.86s9.37-3.29,16.41-2.82c7.04.47,11.27,2.21,14.55,4.56,3.29,2.35,4.66,5.51,11.63,7.35,6.86,1.81,11.34-.64,11.34-.64,0,0-5.02,5.84-12.19,6.1-7.25.26-16.87-6.79-24.38-7.04-7.99-.26-17.35,6.57-17.35,6.57"/>
  <path class="cls-2" d="M295.88,54.69s14.74,2.43,22.03,8.91c7.29,6.47,8.69,12.79,9,16.02s.43,8.36-.47,12.3c-1.4,6.15-2.64,7.45-2.64,7.45,0,0-3.88-1.94-12.72-1.78-6.52.12-15.51,1.94-15.51,1.94,0,0,2.15-13.93,2.48-20.39.47-8.9-2.17-24.44-2.17-24.44"/>
  <g>
    <polygon class="cls-2" points="23.84 232.72 23.84 238.59 15.62 238.59 15.62 268.06 8.22 268.06 8.22 238.59 0 238.59 0 232.72 23.84 232.72"/>
    <polygon class="cls-2" points="43.37 246.86 43.37 232.72 50.77 232.72 50.77 268.06 43.37 268.06 43.37 252.3 34.9 252.3 34.9 268.06 27.51 268.06 27.51 232.72 34.9 232.72 34.9 246.86 43.37 246.86"/>
    <polygon class="cls-2" points="57.18 268.06 57.18 232.72 76.47 232.72 76.47 238.15 64.57 238.15 64.57 246.87 75.54 246.87 75.54 252.3 64.57 252.3 64.57 262.63 76.86 262.63 76.86 268.06 57.18 268.06"/>
    <polygon class="cls-2" points="113.58 232.72 113.58 238.59 105.35 238.59 105.35 268.06 97.96 268.06 97.96 238.59 89.74 238.59 89.74 232.72 113.58 232.72"/>
    <path class="cls-2" d="M111.37,268.06l9.79-35.34h9.74l9.59,35.34h-7.78l-1.96-7.83h-10.08l-2.01,7.83h-7.29ZM125.62,239.52h-.1l-3.38,15.27h7.05l-3.57-15.27Z"/>
    <polygon class="cls-2" points="144.03 268.06 144.03 232.72 151.42 232.72 151.42 262.19 162.48 262.19 162.48 268.06 144.03 268.06"/>
    <polygon class="cls-2" points="165.76 268.06 165.76 232.72 173.15 232.72 173.15 262.19 184.22 262.19 184.22 268.06 165.76 268.06"/>
    <path class="cls-2" d="M207.91,268.65c-9.15,0-10.87-5.39-10.48-11.5h7.39c0,3.38.15,6.22,4.21,6.22,2.5,0,3.72-1.62,3.72-4.01,0-6.36-14.88-6.75-14.88-17.28,0-5.53,2.64-9.94,11.65-9.94,7.2,0,10.77,3.23,10.28,10.62h-7.2c0-2.64-.44-5.34-3.43-5.34-2.4,0-3.82,1.32-3.82,3.77,0,6.7,14.88,6.12,14.88,17.23,0,9.15-6.71,10.23-12.34,10.23"/>
    <polygon class="cls-2" points="241.64 246.86 241.64 232.72 249.03 232.72 249.03 268.06 241.64 268.06 241.64 252.3 233.17 252.3 233.17 268.06 225.78 268.06 225.78 232.72 233.17 232.72 233.17 246.86 241.64 246.86"/>
    <rect class="cls-2" x="255.45" y="232.72" width="7.39" height="35.34"/>
    <path class="cls-2" d="M269.11,232.72h13.32c6.75,0,9.4,4.11,9.4,10.57,0,4.01-1.17,10.38-9.84,10.38h-5.48v14.39h-7.39v-35.34ZM276.5,248.23h4.11c2.2,0,3.72-2.4,3.72-4.75,0-2.89-.78-5.34-4.11-5.34h-3.72v10.08Z"/>
    <path class="cls-2" d="M305.87,268.65c-9.15,0-10.87-5.39-10.48-11.5h7.39c0,3.38.15,6.22,4.21,6.22,2.5,0,3.72-1.62,3.72-4.01,0-6.36-14.88-6.75-14.88-17.28,0-5.53,2.64-9.94,11.65-9.94,7.2,0,10.77,3.23,10.28,10.62h-7.2c0-2.64-.44-5.34-3.43-5.34-2.4,0-3.82,1.32-3.82,3.77,0,6.7,14.88,6.12,14.88,17.23,0,9.15-6.7,10.23-12.33,10.23"/>
    <path class="cls-2" d="M341.61,268.06h-7.39v-35.34h13.66c5.04,0,8.27,3.23,8.27,9.25,0,4.51-1.76,7.88-6.56,8.67v.1c1.62.2,6.41.59,6.41,6.95,0,2.25.15,8.91.83,10.38h-7.25c-.98-2.16-.78-4.55-.78-6.85,0-4.21.39-7.78-5.29-7.78h-1.91v14.64ZM341.61,247.99h3.28c2.94,0,3.77-2.94,3.77-5.19,0-3.38-1.42-4.65-3.77-4.65h-3.28v9.84Z"/>
    <path class="cls-2" d="M358.89,268.06l9.79-35.34h9.74l9.59,35.34h-7.78l-1.96-7.83h-10.09l-2.01,7.83h-7.29ZM373.14,239.52h-.1l-3.38,15.27h7.05l-3.57-15.27Z"/>
    <path class="cls-2" d="M391.15,250.39c0-9.35,0-18.26,12.19-18.26,7.54,0,10.57,4.16,10.28,11.75h-7.25c0-4.7-.83-6.46-3.03-6.46-4.16,0-4.7,3.92-4.7,12.97s.54,12.97,4.7,12.97c3.43,0,3.28-4.41,3.38-7.2h7.3c0,9.45-3.77,12.48-10.67,12.48-12.19,0-12.19-9.01-12.19-18.26"/>
    <polygon class="cls-2" points="418.72 268.06 418.72 232.72 438 232.72 438 238.15 426.11 238.15 426.11 246.87 437.07 246.87 437.07 252.3 426.11 252.3 426.11 262.63 438.4 262.63 438.4 268.06 418.72 268.06"/>
    <path class="cls-2" d="M452.79,268.65c-9.15,0-10.87-5.39-10.48-11.5h7.39c0,3.38.15,6.22,4.21,6.22,2.5,0,3.72-1.62,3.72-4.01,0-6.36-14.88-6.75-14.88-17.28,0-5.53,2.64-9.94,11.65-9.94,7.2,0,10.77,3.23,10.28,10.62h-7.2c0-2.64-.44-5.34-3.43-5.34-2.4,0-3.82,1.32-3.82,3.77,0,6.7,14.88,6.12,14.88,17.23,0,9.15-6.71,10.23-12.34,10.23"/>
  </g>
  <g>
    <path class="cls-2" d="M451.67,204.43v.83h-1.98v6.68h-.96v-6.68h-1.98v-.83h4.91Z"/>
    <path class="cls-2" d="M453.56,211.95h-.89v-7.51h1.55l1.89,6.31h.02l1.92-6.31h1.58v7.51h-.96v-6.68h-.02l-2.1,6.68h-.91l-2.06-6.68h-.02v6.68Z"/>
  </g>
  <g>
    <g>
      <path class="cls-2" d="M125.85,282.2h8.4l-10.22,16.39,10.22,20.13h-8.6l-8.75-18.72h-.1v18.72h-7.64v-36.52h7.64v15.63h.1l8.95-15.63Z"/>
      <path class="cls-2" d="M144.16,293.18v3.29h.1c1.31-2.93,3.74-3.79,6.63-3.79v6.37c-6.27-.4-6.37,3.24-6.37,5.77v13.91h-7.13v-25.54h6.78Z"/>
      <path class="cls-2" d="M161.97,282.2v5.61h-7.13v-5.61h7.13ZM161.97,318.72h-7.13v-25.54h7.13v25.54Z"/>
      <path class="cls-2" d="M173.9,310.53c-.05,1.16,0,2.28.35,3.09.4.81,1.16,1.21,2.58,1.21s2.63-.91,2.63-2.63c0-5.41-12.54-4.2-12.54-12.34,0-5.51,5.46-7.18,10.07-7.18,4.86,0,9.26,2.33,8.85,7.84h-6.98c0-1.77-.2-2.83-.71-3.29-.46-.46-1.06-.56-1.82-.56-1.57,0-2.43,1.01-2.43,2.73,0,4.05,12.54,3.84,12.54,12.04,0,4.45-3.64,7.79-9.56,7.79-6.22,0-10.37-1.57-9.96-8.7h6.98Z"/>
      <path class="cls-2" d="M187.86,293.18h2.88v-4.05l7.13-3.19v7.23h3.69v4.4h-3.69v13.66c0,1.92-.05,3.19,2.28,3.19.46,0,.91,0,1.26-.1v4.4c-.96.1-1.97.25-3.69.25-6.17,0-6.98-4.1-6.98-5.67v-15.73h-2.88v-4.4Z"/>
      <path class="cls-2" d="M212.54,282.2v5.61h-7.13v-5.61h7.13ZM212.54,318.72h-7.13v-25.54h7.13v25.54Z"/>
      <path class="cls-2" d="M238.24,313.97c0,1.57.2,3.19.35,4.75h-6.63l-.3-3.39h-.1c-1.52,2.63-3.59,3.89-6.68,3.89-4.96,0-6.78-3.69-6.78-8.14,0-8.45,6.53-8.8,13.15-8.7v-1.97c0-2.18-.3-3.74-2.88-3.74s-2.68,1.87-2.68,3.89h-6.98c0-3.09.96-5.06,2.63-6.22,1.62-1.21,3.95-1.67,6.68-1.67,9.05,0,10.22,3.89,10.22,8.55v12.75ZM225.09,310.78c0,1.82.3,4.05,2.63,4.05,4.2,0,3.54-5.67,3.54-8.45-3.54.15-6.17-.15-6.17,4.4Z"/>
      <path class="cls-2" d="M251.29,295.76h.1c.71-1.16,1.57-1.92,2.53-2.38,1.01-.51,2.17-.71,3.49-.71,3.39,0,6.37,2.02,6.37,5.56v20.49h-7.13v-17.6c0-2.28-.4-4.05-2.68-4.05s-2.68,1.77-2.68,4.05v17.6h-7.13v-25.54h7.13v2.58Z"/>
      <path class="cls-2" d="M275.06,310.53c-.05,1.16,0,2.28.35,3.09.4.81,1.16,1.21,2.58,1.21s2.63-.91,2.63-2.63c0-5.41-12.54-4.2-12.54-12.34,0-5.51,5.46-7.18,10.07-7.18,4.86,0,9.26,2.33,8.85,7.84h-6.98c0-1.77-.2-2.83-.71-3.29-.46-.46-1.06-.56-1.82-.56-1.57,0-2.43,1.01-2.43,2.73,0,4.05,12.54,3.84,12.54,12.04,0,4.45-3.64,7.79-9.56,7.79-6.22,0-10.37-1.57-9.96-8.7h6.98Z"/>
      <path class="cls-2" d="M311.27,313.97c0,1.57.2,3.19.35,4.75h-6.63l-.3-3.39h-.1c-1.52,2.63-3.59,3.89-6.68,3.89-4.96,0-6.78-3.69-6.78-8.14,0-8.45,6.53-8.8,13.15-8.7v-1.97c0-2.18-.3-3.74-2.88-3.74s-2.68,1.87-2.68,3.89h-6.98c0-3.09.96-5.06,2.63-6.22,1.62-1.21,3.95-1.67,6.68-1.67,9.05,0,10.22,3.89,10.22,8.55v12.75ZM298.12,310.78c0,1.82.3,4.05,2.63,4.05,4.2,0,3.54-5.67,3.54-8.45-3.54.15-6.17-.15-6.17,4.4Z"/>
      <path class="cls-2" d="M324.32,295.76h.1c.71-1.16,1.57-1.92,2.53-2.38,1.01-.51,2.18-.71,3.49-.71,3.39,0,6.37,2.02,6.37,5.56v20.49h-7.13v-17.6c0-2.28-.4-4.05-2.68-4.05s-2.68,1.77-2.68,4.05v17.6h-7.13v-25.54h7.13v2.58Z"/>
      <path class="cls-2" d="M355.22,318.72v-2.83h-.1c-1.32,2.48-3.29,3.34-6.02,3.34-7.38,0-7.13-8.19-7.13-13.46s-.2-13.1,6.98-13.1c2.58,0,4.35.76,5.82,2.93h.1v-13.4h7.13v36.52h-6.78ZM354.87,305.72c0-5.11.05-8.65-2.88-8.65-3.08,0-3.03,3.54-3.03,8.65,0,6.42.46,9.11,3.03,9.11,2.43,0,2.88-2.68,2.88-9.11Z"/>
      <path class="cls-2" d="M376.77,318.72v-6.22c11.13-14.82,13.46-16.54,13.46-20.94,0-1.77-.66-3.44-2.68-3.44-2.93,0-3.08,2.78-3.08,5.06h-7.13c-.51-6.58,3.19-10.22,9.71-10.22,6.12,0,10.32,2.48,10.32,9.1,0,7.94-9.26,16.95-13.1,21.19h13.46v5.46h-20.94Z"/>
      <path class="cls-2" d="M420.06,300.97c0,11.08-.71,18.21-10.22,18.21s-10.22-7.13-10.22-18.21c0-13.5,1.52-18.01,10.22-18.01s10.22,4.5,10.22,18.01ZM406.76,301.07c0,10.67.25,12.95,3.09,12.95s3.09-2.28,3.09-12.95-.05-12.95-3.09-12.95-3.09,2.07-3.09,12.95Z"/>
      <path class="cls-2" d="M421.68,318.72v-6.22c11.13-14.82,13.46-16.54,13.46-20.94,0-1.77-.66-3.44-2.68-3.44-2.93,0-3.08,2.78-3.08,5.06h-7.13c-.51-6.58,3.19-10.22,9.71-10.22,6.12,0,10.32,2.48,10.32,9.1,0,7.94-9.26,16.95-13.1,21.19h13.45v5.46h-20.94Z"/>
      <path class="cls-2" d="M452.38,297.68l.1.1c1.11-1.67,3.04-2.38,5.11-2.38,5.82,0,7.54,4,7.54,11.63,0,9.46-3.54,12.14-10.77,12.14-5.87,0-9.56-2.43-9.36-8.75h7.13c0,.96.1,1.87.51,2.53.41.66,1.06,1.06,2.18,1.06,2.83,0,3.19-2.17,3.19-6.98,0-2.28.2-7.08-3.04-7.08-2.07,0-2.68,2.33-2.68,3.95h-6.88v-20.49h18.46v5.46h-11.48v8.8Z"/>
    </g>
    <g>
      <path class="cls-1" d="M85.56,348.6c0-1.46.52-2.7,1.57-3.72,1.04-1.02,2.32-1.54,3.82-1.54s2.79.52,3.84,1.55c1.04,1.03,1.56,2.3,1.56,3.8s-.52,2.78-1.57,3.81c-1.05,1.02-2.34,1.53-3.87,1.53s-2.78-.52-3.81-1.56c-1.02-1.02-1.54-2.31-1.54-3.86ZM87.95,348.64c0,1.01.27,1.81.81,2.4.55.59,1.28.89,2.19.89s1.64-.29,2.19-.88c.55-.59.82-1.37.82-2.36s-.27-1.77-.82-2.36c-.55-.59-1.28-.89-2.19-.89s-1.62.3-2.17.89c-.55.59-.83,1.36-.83,2.3Z"/>
      <path class="cls-1" d="M98.81,343.62h2.33v.9c.43-.45.81-.76,1.14-.92.34-.17.74-.26,1.2-.26.62,0,1.26.2,1.93.6l-1.07,2.14c-.44-.32-.88-.48-1.3-.48-1.27,0-1.91.96-1.91,2.88v5.24h-2.33v-10.11Z"/>
      <path class="cls-1" d="M116.53,353.49c0,.48-.02.9-.05,1.26-.03.36-.07.68-.13.96-.17.76-.49,1.42-.98,1.96-.91,1.05-2.17,1.58-3.77,1.58-1.35,0-2.46-.36-3.33-1.09-.9-.75-1.42-1.78-1.56-3.1h2.34c.09.5.24.88.45,1.15.48.63,1.19.94,2.12.94,1.71,0,2.56-1.05,2.56-3.14v-1.41c-.93.95-2,1.42-3.21,1.42-1.38,0-2.5-.5-3.38-1.5-.89-1.01-1.33-2.27-1.33-3.79s.41-2.72,1.23-3.76c.89-1.09,2.05-1.64,3.51-1.64,1.27,0,2.33.47,3.18,1.42v-1.14h2.33v9.87ZM114.29,348.69c0-.98-.26-1.77-.79-2.36-.53-.6-1.21-.9-2.04-.9-.89,0-1.58.33-2.1.99-.46.59-.69,1.35-.69,2.28s.23,1.67.69,2.26c.5.64,1.2.96,2.1.96s1.6-.33,2.12-.98c.48-.59.72-1.34.72-2.26Z"/>
      <path class="cls-1" d="M126.93,343.62h2.35v10.11h-2.35v-1.06c-.96.9-2,1.35-3.1,1.35-1.4,0-2.55-.5-3.47-1.52-.91-1.03-1.36-2.32-1.36-3.86s.45-2.78,1.36-3.79c.91-1.01,2.04-1.52,3.4-1.52,1.18,0,2.23.48,3.16,1.45v-1.17ZM121.39,348.64c0,.97.26,1.76.78,2.37.53.62,1.2.92,2.01.92.86,0,1.56-.3,2.1-.89.53-.62.8-1.4.8-2.34s-.27-1.73-.8-2.34c-.53-.6-1.22-.9-2.08-.9-.8,0-1.47.3-2.01.91-.53.62-.8,1.38-.8,2.28Z"/>
      <path class="cls-1" d="M132.22,343.62h2.34v.93c.82-.81,1.74-1.21,2.76-1.21,1.18,0,2.09.37,2.75,1.11.57.63.85,1.66.85,3.08v6.19h-2.34v-5.64c0-1-.14-1.68-.42-2.06-.27-.39-.76-.58-1.47-.58-.77,0-1.32.26-1.65.77-.32.5-.48,1.39-.48,2.65v4.88h-2.34v-10.11Z"/>
      <path class="cls-1" d="M143.52,339.42c0-.41.15-.76.45-1.06.3-.3.65-.45,1.07-.45s.78.15,1.08.45c.3.29.45.65.45,1.07s-.15.78-.45,1.08c-.29.3-.65.45-1.07.45s-.78-.15-1.08-.45c-.3-.3-.45-.66-.45-1.09ZM146.21,343.62v10.11h-2.33v-10.11h2.33Z"/>
      <path class="cls-1" d="M155.04,345.34l-1.93,1.03c-.3-.62-.68-.93-1.13-.93-.21,0-.4.07-.55.21-.15.14-.23.32-.23.54,0,.39.45.77,1.35,1.15,1.24.53,2.07,1.02,2.5,1.47.43.45.64,1.06.64,1.82,0,.97-.36,1.79-1.08,2.45-.7.62-1.54.93-2.53.93-1.69,0-2.9-.83-3.6-2.48l1.99-.92c.28.48.49.79.63.92.28.26.62.39,1.02.39.79,0,1.18-.36,1.18-1.08,0-.42-.3-.8-.91-1.16-.23-.12-.47-.23-.71-.34-.23-.11-.47-.22-.72-.34-.68-.33-1.16-.66-1.43-1-.35-.42-.53-.97-.53-1.63,0-.88.3-1.6.9-2.18.62-.57,1.36-.86,2.24-.86,1.29,0,2.25.67,2.88,2Z"/>
      <path class="cls-1" d="M166.99,349.22h-7.24c.06.83.33,1.49.81,1.98.48.48,1.09.73,1.84.73.58,0,1.06-.14,1.44-.42.37-.28.8-.79,1.28-1.54l1.97,1.1c-.3.52-.63.96-.97,1.33s-.7.67-1.09.91-.81.41-1.26.52c-.45.11-.94.17-1.46.17-1.51,0-2.72-.48-3.63-1.45-.91-.98-1.37-2.27-1.37-3.88s.44-2.89,1.33-3.88c.89-.97,2.08-1.46,3.55-1.46s2.66.47,3.53,1.42c.86.94,1.29,2.25,1.29,3.91v.55ZM164.6,347.31c-.33-1.25-1.11-1.87-2.36-1.87-.28,0-.55.04-.8.13-.25.09-.48.21-.68.37-.2.16-.38.36-.52.59-.15.23-.26.49-.33.78h4.69Z"/>
      <path class="cls-1" d="M176.99,336.2h2.35v17.53h-2.35v-1.06c-.92.9-1.96,1.35-3.12,1.35-1.38,0-2.53-.5-3.44-1.52-.91-1.03-1.36-2.32-1.36-3.86s.45-2.77,1.36-3.78c.9-1.02,2.03-1.53,3.39-1.53,1.18,0,2.24.48,3.17,1.45v-8.59ZM171.45,348.64c0,.97.26,1.76.78,2.37.53.62,1.2.92,2.01.92.86,0,1.56-.3,2.1-.89.53-.62.8-1.4.8-2.34s-.27-1.73-.8-2.34c-.53-.6-1.22-.9-2.08-.9-.8,0-1.47.3-2.01.91-.53.62-.8,1.38-.8,2.28Z"/>
      <path class="cls-1" d="M191.18,336.2v8.59c.93-.97,1.99-1.45,3.17-1.45,1.36,0,2.5.51,3.4,1.53.91,1.01,1.36,2.27,1.36,3.78s-.46,2.84-1.37,3.86c-.91,1.01-2.05,1.52-3.43,1.52-1.17,0-2.21-.45-3.13-1.35v1.06h-2.33v-17.53h2.33ZM196.73,348.75c0-.97-.26-1.76-.79-2.37-.53-.62-1.2-.93-2-.93-.86,0-1.56.3-2.1.9-.53.59-.8,1.37-.8,2.32s.26,1.77.79,2.35c.53.6,1.22.9,2.08.9.81,0,1.48-.3,2.01-.9.54-.61.81-1.37.81-2.28Z"/>
      <path class="cls-1" d="M204.39,351.85l-4.54-8.23h2.71l3.09,5.81,2.88-5.81h2.64l-8.05,15.61h-2.67l3.94-7.38Z"/>
      <path class="cls-1" d="M228.81,340.09l-1.96,1.16c-.37-.64-.72-1.05-1.05-1.25-.35-.22-.79-.33-1.34-.33-.67,0-1.23.19-1.67.57-.44.37-.66.84-.66,1.41,0,.78.58,1.41,1.74,1.89l1.6.65c1.3.53,2.25,1.17,2.85,1.92.6.76.9,1.69.9,2.79,0,1.47-.49,2.69-1.47,3.65-.99.97-2.22,1.45-3.68,1.45-1.39,0-2.54-.41-3.44-1.24-.89-.82-1.45-1.98-1.67-3.48l2.45-.54c.11.94.3,1.59.58,1.95.5.69,1.22,1.04,2.18,1.04.75,0,1.38-.25,1.88-.76s.75-1.15.75-1.92c0-.31-.04-.6-.13-.86-.09-.26-.22-.5-.4-.72-.18-.22-.42-.42-.71-.61-.29-.19-.64-.37-1.04-.54l-1.55-.64c-2.19-.93-3.29-2.28-3.29-4.07,0-1.2.46-2.21,1.38-3.02.92-.82,2.06-1.22,3.43-1.22,1.85,0,3.29.9,4.33,2.7Z"/>
      <path class="cls-1" d="M239.15,343.62h2.35v10.11h-2.35v-1.06c-.96.9-2,1.35-3.1,1.35-1.4,0-2.55-.5-3.47-1.52-.91-1.03-1.36-2.32-1.36-3.86s.45-2.78,1.36-3.79c.91-1.01,2.04-1.52,3.4-1.52,1.18,0,2.23.48,3.16,1.45v-1.17ZM233.61,348.64c0,.97.26,1.76.78,2.37.53.62,1.2.92,2.01.92.86,0,1.56-.3,2.1-.89.53-.62.8-1.4.8-2.34s-.27-1.73-.8-2.34c-.53-.6-1.22-.9-2.08-.9-.8,0-1.47.3-2.01.91-.53.62-.8,1.38-.8,2.28Z"/>
      <path class="cls-1" d="M244.09,339.42c0-.41.15-.76.45-1.06.3-.3.65-.45,1.07-.45s.78.15,1.08.45c.3.29.45.65.45,1.07s-.15.78-.45,1.08c-.29.3-.65.45-1.07.45s-.78-.15-1.08-.45c-.3-.3-.45-.66-.45-1.09ZM246.77,343.62v10.11h-2.33v-10.11h2.33Z"/>
      <path class="cls-1" d="M252.06,336.2v17.53h-2.33v-17.53h2.33Z"/>
      <path class="cls-1" d="M266.45,339.98v13.75h-2.42v-13.75h-3.68v-2.27h9.77v2.27h-3.67Z"/>
      <path class="cls-1" d="M271.11,343.62h2.33v.9c.43-.45.81-.76,1.14-.92.34-.17.74-.26,1.2-.26.62,0,1.26.2,1.93.6l-1.07,2.14c-.44-.32-.88-.48-1.3-.48-1.27,0-1.91.96-1.91,2.88v5.24h-2.33v-10.11Z"/>
      <path class="cls-1" d="M286.36,343.62h2.35v10.11h-2.35v-1.06c-.96.9-2,1.35-3.1,1.35-1.4,0-2.55-.5-3.47-1.52-.91-1.03-1.36-2.32-1.36-3.86s.45-2.78,1.36-3.79c.91-1.01,2.04-1.52,3.4-1.52,1.18,0,2.23.48,3.16,1.45v-1.17ZM280.82,348.64c0,.97.26,1.76.78,2.37.53.62,1.2.92,2.01.92.86,0,1.56-.3,2.1-.89.53-.62.8-1.4.8-2.34s-.27-1.73-.8-2.34c-.53-.6-1.22-.9-2.08-.9-.8,0-1.47.3-2.01.91-.53.62-.8,1.38-.8,2.28Z"/>
      <path class="cls-1" d="M291.3,339.42c0-.41.15-.76.45-1.06.3-.3.65-.45,1.07-.45s.78.15,1.08.45c.3.29.45.65.45,1.07s-.15.78-.45,1.08c-.29.3-.65.45-1.07.45s-.78-.15-1.08-.45c-.3-.3-.45-.66-.45-1.09ZM293.98,343.62v10.11h-2.33v-10.11h2.33Z"/>
      <path class="cls-1" d="M296.94,343.62h2.34v.93c.82-.81,1.74-1.21,2.76-1.21,1.18,0,2.09.37,2.75,1.11.57.63.85,1.66.85,3.08v6.19h-2.34v-5.64c0-1-.14-1.68-.42-2.06-.27-.39-.76-.58-1.47-.58-.77,0-1.32.26-1.65.77-.32.5-.48,1.39-.48,2.65v4.88h-2.34v-10.11Z"/>
      <path class="cls-1" d="M308.24,339.42c0-.41.15-.76.45-1.06.3-.3.65-.45,1.07-.45s.78.15,1.08.45c.3.29.45.65.45,1.07s-.15.78-.45,1.08c-.29.3-.65.45-1.07.45s-.78-.15-1.08-.45c-.3-.3-.45-.66-.45-1.09ZM310.93,343.62v10.11h-2.33v-10.11h2.33Z"/>
      <path class="cls-1" d="M313.89,343.62h2.34v.93c.82-.81,1.74-1.21,2.76-1.21,1.18,0,2.09.37,2.75,1.11.57.63.85,1.66.85,3.08v6.19h-2.34v-5.64c0-1-.14-1.68-.42-2.06-.27-.39-.76-.58-1.47-.58-.77,0-1.32.26-1.65.77-.32.5-.48,1.39-.48,2.65v4.88h-2.34v-10.11Z"/>
      <path class="cls-1" d="M335.31,353.49c0,.48-.02.9-.05,1.26-.03.36-.07.68-.13.96-.17.76-.49,1.42-.98,1.96-.91,1.05-2.17,1.58-3.77,1.58-1.35,0-2.46-.36-3.33-1.09-.9-.75-1.42-1.78-1.56-3.1h2.34c.09.5.24.88.45,1.15.48.63,1.19.94,2.12.94,1.71,0,2.56-1.05,2.56-3.14v-1.41c-.93.95-2,1.42-3.21,1.42-1.38,0-2.5-.5-3.38-1.5-.89-1.01-1.33-2.27-1.33-3.79s.41-2.72,1.23-3.76c.89-1.09,2.05-1.64,3.51-1.64,1.27,0,2.33.47,3.17,1.42v-1.14h2.33v9.87ZM333.07,348.69c0-.98-.26-1.77-.79-2.36-.53-.6-1.21-.9-2.04-.9-.89,0-1.58.33-2.1.99-.46.59-.7,1.35-.7,2.28s.23,1.67.7,2.26c.5.64,1.2.96,2.1.96s1.6-.33,2.12-.98c.48-.59.72-1.34.72-2.26Z"/>
      <path class="cls-1" d="M347.68,337.71v16.02h-2.42v-16.02h2.42Z"/>
      <path class="cls-1" d="M351.08,343.62h2.34v.93c.82-.81,1.74-1.21,2.76-1.21,1.18,0,2.09.37,2.75,1.11.57.63.85,1.66.85,3.08v6.19h-2.34v-5.64c0-1-.14-1.68-.42-2.06-.27-.39-.76-.58-1.47-.58-.77,0-1.32.26-1.65.77-.32.5-.48,1.39-.48,2.65v4.88h-2.34v-10.11Z"/>
      <path class="cls-1" d="M365.14,345.8v7.93h-2.33v-7.93h-1v-2.18h1v-3.7h2.33v3.7h1.82v2.18h-1.82Z"/>
      <path class="cls-1" d="M377.94,349.22h-7.24c.06.83.33,1.49.81,1.98.48.48,1.09.73,1.84.73.58,0,1.06-.14,1.44-.42.37-.28.8-.79,1.28-1.54l1.97,1.1c-.3.52-.63.96-.96,1.33s-.7.67-1.09.91-.81.41-1.26.52c-.45.11-.94.17-1.46.17-1.51,0-2.72-.48-3.63-1.45-.91-.98-1.37-2.27-1.37-3.88s.44-2.89,1.33-3.88c.89-.97,2.08-1.46,3.55-1.46s2.66.47,3.53,1.42c.86.94,1.29,2.25,1.29,3.91v.55ZM375.54,347.31c-.33-1.25-1.11-1.87-2.36-1.87-.28,0-.55.04-.8.13-.25.09-.48.21-.68.37-.2.16-.38.36-.52.59-.14.23-.26.49-.33.78h4.69Z"/>
      <path class="cls-1" d="M380.49,343.62h2.33v.9c.43-.45.81-.76,1.14-.92.34-.17.74-.26,1.2-.26.62,0,1.26.2,1.93.6l-1.07,2.14c-.44-.32-.88-.48-1.3-.48-1.27,0-1.91.96-1.91,2.88v5.24h-2.33v-10.11Z"/>
      <path class="cls-1" d="M388.76,343.62h2.34v.93c.82-.81,1.74-1.21,2.76-1.21,1.18,0,2.09.37,2.75,1.11.57.63.85,1.66.85,3.08v6.19h-2.34v-5.64c0-1-.14-1.68-.42-2.06-.27-.39-.76-.58-1.47-.58-.77,0-1.32.26-1.65.77-.32.5-.48,1.39-.48,2.65v4.88h-2.34v-10.11Z"/>
      <path class="cls-1" d="M407.86,343.62h2.34v10.11h-2.34v-1.06c-.96.9-2,1.35-3.1,1.35-1.4,0-2.55-.5-3.47-1.52-.91-1.03-1.36-2.32-1.36-3.86s.45-2.78,1.36-3.79c.91-1.01,2.04-1.52,3.4-1.52,1.18,0,2.23.48,3.17,1.45v-1.17ZM402.32,348.64c0,.97.26,1.76.78,2.37.53.62,1.2.92,2.01.92.86,0,1.56-.3,2.1-.89.53-.62.8-1.4.8-2.34s-.27-1.73-.8-2.34c-.53-.6-1.22-.9-2.08-.9-.8,0-1.47.3-2.01.91-.53.62-.8,1.38-.8,2.28Z"/>
      <path class="cls-1" d="M415.56,345.8v7.93h-2.33v-7.93h-1v-2.18h1v-3.7h2.33v3.7h1.82v2.18h-1.82Z"/>
      <path class="cls-1" d="M418.61,339.42c0-.41.15-.76.45-1.06.3-.3.65-.45,1.07-.45s.78.15,1.08.45c.3.29.45.65.45,1.07s-.15.78-.45,1.08c-.29.3-.65.45-1.07.45s-.78-.15-1.08-.45c-.3-.3-.45-.66-.45-1.09ZM421.3,343.62v10.11h-2.33v-10.11h2.33Z"/>
      <path class="cls-1" d="M423.78,348.6c0-1.46.52-2.7,1.57-3.72,1.04-1.02,2.32-1.54,3.82-1.54s2.79.52,3.84,1.55c1.04,1.03,1.56,2.3,1.56,3.8s-.52,2.78-1.57,3.81c-1.05,1.02-2.34,1.53-3.87,1.53s-2.78-.52-3.81-1.56c-1.02-1.02-1.54-2.31-1.54-3.86ZM426.16,348.64c0,1.01.27,1.81.81,2.4.55.59,1.28.89,2.19.89s1.64-.29,2.19-.88c.55-.59.82-1.37.82-2.36s-.27-1.77-.82-2.36c-.55-.59-1.28-.89-2.19-.89s-1.62.3-2.17.89c-.55.59-.83,1.36-.83,2.3Z"/>
      <path class="cls-1" d="M437.03,343.62h2.34v.93c.82-.81,1.74-1.21,2.76-1.21,1.18,0,2.09.37,2.75,1.11.57.63.85,1.66.85,3.08v6.19h-2.34v-5.64c0-1-.14-1.68-.42-2.06-.27-.39-.76-.58-1.47-.58-.77,0-1.32.26-1.65.77-.32.5-.48,1.39-.48,2.65v4.88h-2.34v-10.11Z"/>
      <path class="cls-1" d="M456.13,343.62h2.34v10.11h-2.34v-1.06c-.96.9-2,1.35-3.1,1.35-1.4,0-2.55-.5-3.47-1.52-.91-1.03-1.36-2.32-1.36-3.86s.45-2.78,1.36-3.79c.91-1.01,2.04-1.52,3.4-1.52,1.18,0,2.23.48,3.17,1.45v-1.17ZM450.59,348.64c0,.97.26,1.76.78,2.37.53.62,1.2.92,2.01.92.86,0,1.56-.3,2.1-.89.53-.62.8-1.4.8-2.34s-.27-1.73-.8-2.34c-.53-.6-1.22-.9-2.08-.9-.8,0-1.47.3-2.01.91-.53.62-.8,1.38-.8,2.28Z"/>
      <path class="cls-1" d="M463.76,336.2v17.53h-2.33v-17.53h2.33Z"/>
    </g>
  </g>
</svg>